<svg width="96" height="96" viewBox="0 0 96 96" fill="none" xmlns="http://www.w3.org/2000/svg">
<path d="M26.1564 52.6124L62.1579 82.6137C63.3817 83.626 64.9569 84.1122 66.5384 83.9656C68.1199 83.819 69.5789 83.0517 70.5959 81.8316C71.6129 80.6116 72.1049 79.0383 71.9643 77.4562C71.8237 75.8741 71.0619 74.4122 69.8457 73.3907L39.3757 48.0007L69.8457 22.6107C71.0665 21.5906 71.8326 20.1275 71.9755 18.543C72.1184 16.9584 71.6265 15.3819 70.6078 14.1598C69.5891 12.9377 68.127 12.17 66.5426 12.0252C64.9582 11.8804 63.3812 12.3704 62.1579 13.3876L26.1564 43.3894C25.4813 43.9534 24.9383 44.6587 24.5657 45.4555C24.1931 46.2523 24 47.1213 24 48.0009C24 48.8805 24.1931 49.7495 24.5657 50.5463C24.9383 51.3431 25.4813 52.0484 26.1564 52.6124Z" fill="white"/>
</svg>
