<svg width="96" height="96" viewBox="0 0 96 96" fill="none" xmlns="http://www.w3.org/2000/svg">
<path d="M69.8436 43.3876L33.8421 13.3863C32.6183 12.374 31.0431 11.8878 29.4616 12.0344C27.8801 12.181 26.4211 12.9483 25.4041 14.1684C24.3871 15.3884 23.8951 16.9617 24.0357 18.5438C24.1763 20.1259 24.9381 21.5878 26.1543 22.6093L56.6243 47.9993L26.1543 73.3893C24.9335 74.4094 24.1674 75.8725 24.0245 77.457C23.8816 79.0416 24.3735 80.6181 25.3922 81.8402C26.4109 83.0623 27.873 83.83 29.4574 83.9748C31.0418 84.1196 32.6188 83.6296 33.8421 82.6124L69.8436 52.6106C70.5187 52.0466 71.0617 51.3413 71.4343 50.5445C71.8069 49.7477 72 48.8787 72 47.9991C72 47.1195 71.8069 46.2505 71.4343 45.4537C71.0617 44.6569 70.5187 43.9516 69.8436 43.3876Z" fill="white"/>
</svg>
